<svg version="1.1" id="Layer_1" xmlns="http://www.w3.org/2000/svg" xmlns:xlink="http://www.w3.org/1999/xlink" x="0px" y="0px"
	 width="100%" viewBox="0 0 980 980" enable-background="new 0 0 980 980" xml:space="preserve">
<path fill="#FFFFFF" opacity="1.000000" stroke="none" 
	d="
M542.000000,981.000000 
	C361.333344,981.000000 181.166672,981.000000 1.000000,981.000000 
	C1.000000,654.333313 1.000000,327.666656 1.000000,1.000000 
	C327.666656,1.000000 654.333313,1.000000 981.000000,1.000000 
	C981.000000,327.666656 981.000000,654.333313 981.000000,981.000000 
	C834.833313,981.000000 688.666687,981.000000 542.000000,981.000000 
M519.325256,368.521881 
	C519.211548,367.938751 519.097900,367.355621 519.510498,365.725037 
	C525.659241,367.528748 531.814697,369.310486 537.936829,371.200531 
	C538.245422,371.295807 538.265137,372.326874 537.555908,373.487640 
	C535.164734,373.076935 532.773499,372.666260 530.572571,372.288239 
	C533.467285,381.622955 536.308411,390.785065 538.193420,399.944916 
	C520.277100,400.273468 502.360413,400.582184 484.444641,400.936798 
	C469.687744,401.228851 454.931915,401.575287 440.123108,401.099579 
	C442.346649,391.934326 444.570190,382.769104 446.871765,373.282196 
	C444.922760,373.539795 443.285461,374.058990 441.713165,373.906799 
	C437.138428,373.463989 435.366486,375.998352 434.331970,379.926147 
	C432.397644,387.270294 430.241486,394.555969 427.218536,401.893494 
	C407.911163,402.250214 388.604523,402.657745 369.296112,402.944885 
	C357.466583,403.120850 345.634003,403.083466 333.803711,403.220612 
	C332.203217,403.239136 330.608032,403.717743 328.158630,403.902466 
	C327.102814,404.991150 325.390503,405.942780 325.128662,407.197205 
	C324.592255,409.766815 324.907196,412.503357 324.744598,415.163422 
	C322.846771,446.210236 320.919556,477.255188 319.012024,508.301422 
	C317.726746,529.220703 316.408569,550.138184 315.196930,571.061829 
	C313.051758,608.106628 310.964294,645.154785 308.880585,682.203125 
	C308.358826,691.479797 307.943207,700.762512 307.285217,710.702271 
	C308.096710,711.440430 308.792267,712.412109 309.737274,712.881348 
	C322.527405,719.231201 335.315247,725.588013 348.184235,731.775574 
	C354.423004,734.775391 360.829865,737.425659 367.844543,740.582214 
	C370.649841,740.466003 373.455536,740.358765 376.260376,740.232117 
	C406.825165,738.851624 437.390717,737.487976 467.954193,736.078430 
	C488.213409,735.144104 508.467133,734.088318 528.727661,733.184021 
	C561.621094,731.715942 594.518982,730.347900 627.412964,728.891479 
	C635.825012,728.519104 644.229309,727.973816 652.720337,727.503357 
	C652.800781,725.896057 652.971191,724.735962 652.899597,723.591064 
	C651.685120,704.186707 650.368713,684.788574 649.220947,665.380310 
	C647.788208,641.153564 646.491333,616.918823 645.130981,592.687744 
	C643.808350,569.127441 642.429871,545.570068 641.166443,522.006592 
	C639.688721,494.447083 638.358337,466.879669 636.857239,439.321503 
	C636.396729,430.867950 635.585144,422.433533 635.021240,413.179199 
	C634.337158,412.129608 633.879395,410.483521 632.933289,410.124390 
	C625.045593,407.130524 617.067993,404.373779 608.847351,401.158051 
	C608.406006,401.071442 607.964600,400.984833 607.016663,400.283356 
	C606.270447,400.106995 605.524170,399.930664 604.088257,399.331085 
	C588.664978,399.293457 573.241699,399.255829 557.223511,398.671448 
	C556.030701,393.543732 554.703430,388.442688 553.680481,383.281311 
	C552.499084,377.320587 550.347534,372.719696 542.726318,373.339600 
	C542.488464,372.723785 542.250671,372.107971 542.937866,371.487518 
	C583.953430,374.332275 607.998901,337.395111 603.697632,311.748779 
	C598.098755,336.849121 583.266235,354.389648 557.367371,358.270477 
	C523.014709,363.418091 501.662292,345.994232 491.218292,314.003113 
	C490.749054,314.149689 490.494476,314.157379 490.456940,314.251587 
	C489.793365,315.917175 489.156250,317.593353 487.877777,318.919891 
	C487.163086,318.417053 486.448364,317.914185 485.531616,317.269165 
	C480.017120,336.902679 466.109924,347.550140 448.252991,353.845490 
	C445.356171,354.866699 445.606140,356.019379 445.226105,358.362762 
	C429.385254,361.307007 414.804504,358.226471 401.678253,348.901642 
	C388.735413,339.707153 381.215332,326.946960 378.126892,311.416931 
	C376.257355,336.273956 391.021973,359.242737 414.094055,367.909058 
	C430.473938,374.061646 446.365356,372.485901 462.428528,365.322479 
	C463.292847,366.204865 464.157166,367.087250 465.002563,368.000000 
	C465.002563,368.000000 465.030609,367.976349 465.083069,368.677856 
	C466.178925,372.451508 468.768219,371.702057 471.752014,370.750397 
	C471.752014,370.750397 471.998474,370.976715 472.323975,371.630524 
	C475.435150,372.992859 478.448303,374.770752 481.699921,375.537689 
	C483.265472,375.906952 485.280609,374.370239 487.719452,373.513153 
	C488.803345,373.631287 489.887268,373.749420 491.091919,374.543121 
	C492.918915,377.276031 493.953156,375.432129 495.668579,373.696320 
	C496.101929,373.729187 496.535248,373.762085 497.024139,374.584412 
	C498.156952,375.204498 499.422394,376.515137 500.400024,376.327362 
	C505.087006,375.427032 509.672577,374.012299 514.342285,373.002960 
	C516.881836,372.454041 519.548706,372.379700 518.862610,368.756836 
	C518.862610,368.756836 518.573914,368.660736 519.325256,368.521881 
M350.574677,84.082504 
	C341.886200,87.432198 332.934143,90.231506 324.561401,94.240578 
	C304.037781,104.067757 284.530731,115.586983 269.287415,132.955704 
	C254.611038,149.678406 251.084595,168.770370 258.395081,189.762268 
	C263.507050,204.441162 272.414490,216.917435 281.831635,229.047516 
	C292.762115,243.126877 303.588959,257.229706 311.116241,273.587341 
	C313.093994,277.885254 316.106506,281.911041 319.381714,285.361450 
	C324.668488,290.931061 330.780426,290.122681 334.611908,283.548523 
	C336.598663,280.139557 338.151489,276.342133 339.160309,272.524658 
	C341.965942,261.907623 344.482025,251.210663 346.935120,240.504639 
	C351.951263,218.612595 356.169373,196.511642 361.966034,174.830887 
	C369.781921,145.597717 384.441833,120.471138 409.926239,102.769852 
	C415.942352,98.591125 421.853729,94.260147 427.909943,90.141312 
	C431.177399,87.919113 432.636902,84.984764 431.938812,81.180313 
	C431.217834,77.251312 428.413239,75.260994 424.671265,74.612381 
	C422.051666,74.158310 419.386749,73.822525 416.732178,73.736031 
	C394.305908,73.005310 372.743469,77.920097 350.574677,84.082504 
M687.886841,111.612732 
	C658.159241,90.877190 624.899414,79.486115 589.191040,75.134674 
	C579.035339,73.897095 568.641907,74.367477 558.363342,74.503021 
	C554.345154,74.556000 550.975647,76.693016 550.078796,81.150635 
	C549.199097,85.522392 551.375305,88.437286 554.855591,90.732460 
	C558.745178,93.297508 562.617432,95.896606 566.393311,98.624771 
	C583.126648,110.715012 598.361572,124.147758 607.662048,143.194595 
	C615.959839,160.188049 621.881714,177.979660 626.019043,196.361969 
	C631.497620,220.703842 636.582825,245.134125 642.017456,269.486176 
	C642.952271,273.674927 644.427063,277.833801 646.274841,281.709747 
	C650.449829,290.467041 657.659302,291.489899 663.887390,284.123383 
	C666.972473,280.474426 669.293396,276.170563 671.884705,272.114868 
	C679.563843,260.096100 686.737427,247.721085 694.982361,236.105515 
	C704.897522,222.136948 716.094788,209.030334 722.477905,192.861633 
	C731.221313,170.714081 728.453247,150.192642 712.134949,132.581818 
	C705.073975,124.961700 696.425476,118.812622 687.886841,111.612732 
M586.505737,890.993042 
	C594.786194,890.993042 603.066711,890.993042 611.347168,890.993042 
	C611.670898,890.471252 611.994690,889.949463 612.318420,889.427673 
	C611.151123,888.268433 610.148804,886.390259 608.787048,886.077637 
	C603.635559,884.895020 601.812927,882.029968 601.982056,876.782471 
	C602.298645,866.963257 602.246704,857.119629 601.966248,847.297058 
	C601.664917,836.741150 595.211121,829.623291 584.938660,828.389893 
	C576.357544,827.359680 568.368896,829.102722 561.476013,834.679016 
	C560.128418,835.769165 558.710327,836.772278 556.359375,838.542480 
	C556.359375,823.627502 556.359375,809.913818 556.359375,795.613159 
	C545.302185,796.118347 534.867004,796.497681 524.457825,797.240784 
	C523.546814,797.305786 522.806213,799.758240 521.799316,801.408386 
	C532.399780,803.556580 534.333984,805.283691 534.360168,812.582458 
	C534.439270,834.575256 534.350952,856.568665 534.455505,878.561279 
	C534.477966,883.293396 532.467163,885.846313 527.777832,886.008850 
	C523.898254,886.143433 523.809570,887.993469 525.079956,890.714783 
	C538.394775,890.714783 551.508484,890.714783 564.622192,890.714783 
	C564.948669,890.325989 565.275146,889.937134 565.601685,889.548340 
	C564.442749,888.312805 563.485535,886.374512 562.087219,885.973083 
	C557.832825,884.751892 556.204834,882.225403 556.267151,877.928833 
	C556.402527,868.600403 556.269043,859.268433 556.310486,849.938171 
	C556.337524,843.851624 562.157654,838.915771 569.610779,838.547729 
	C575.907104,838.236816 579.749390,841.552063 579.992859,848.610779 
	C580.360168,859.260681 580.167480,869.931091 580.147522,880.592590 
	C580.141785,883.633911 578.795837,885.820129 575.480713,885.936035 
	C571.984863,886.058228 571.284668,887.662842 572.534668,890.994385 
	C576.892883,890.994385 581.201172,890.994385 586.505737,890.993042 
M711.646606,844.794678 
	C711.645264,863.768738 711.639587,882.742737 711.644348,901.716797 
	C711.646912,911.892395 711.555725,912.003174 701.341797,913.555786 
	C701.034485,913.602539 700.756470,913.842468 700.129578,914.164551 
	C700.188599,915.410400 700.254700,916.806213 700.319641,918.177612 
	C716.297668,918.177612 731.881165,918.177612 747.846680,918.177612 
	C747.718445,916.508606 747.612488,915.129944 747.515686,913.870300 
	C744.319214,913.238831 741.386169,913.091553 738.846130,912.016174 
	C736.932800,911.205994 734.259766,909.321228 734.113647,907.715576 
	C733.557434,901.603699 733.889343,895.410950 733.889343,889.099731 
	C755.064880,897.620789 770.371460,889.374634 777.455078,879.552490 
	C785.532654,868.352112 785.696350,849.602783 776.694092,838.930237 
	C773.241333,834.836975 768.100281,831.426575 763.043762,829.581116 
	C752.396057,825.695007 742.650452,829.371277 733.690002,836.551086 
	C733.440796,833.572144 733.265564,831.477966 733.060364,829.025269 
	C721.968140,829.595398 711.244934,830.146545 700.694092,830.688843 
	C699.559326,834.023621 700.248657,835.611145 703.457520,835.945679 
	C708.166443,836.436401 711.093323,838.952881 711.646606,844.794678 
M212.123428,868.481323 
	C212.116531,884.462341 212.116211,884.459717 199.790878,886.009888 
	C199.499802,886.046448 199.238510,886.320007 198.650208,886.668579 
	C198.712814,887.919617 198.783279,889.327881 198.851395,890.688965 
	C215.823837,890.688965 232.383423,890.688965 249.321762,890.688965 
	C249.201172,888.959534 249.103882,887.564148 249.008652,886.198547 
	C246.198578,885.662476 243.535416,885.646057 241.370544,884.599182 
	C239.322449,883.608826 236.380676,881.620300 236.280563,879.926147 
	C235.766602,871.226257 236.042511,862.479736 236.042511,853.815430 
	C242.604385,853.468140 248.609726,853.381836 254.563217,852.781372 
	C263.645508,851.865479 272.290497,849.460449 279.122955,842.951050 
	C285.760071,836.627747 287.384064,828.613159 285.476898,819.986633 
	C283.745453,812.155212 277.920105,807.909485 270.559540,806.174011 
	C264.774658,804.809998 258.768219,803.988464 252.828674,803.765564 
	C242.519058,803.378540 232.185120,803.637512 221.861374,803.630981 
	C214.239929,803.626221 206.618469,803.630066 198.837891,803.630066 
	C198.837891,805.502136 198.837891,806.919189 198.837891,808.507263 
	C200.189560,808.737549 201.318390,808.906006 202.437515,809.124268 
	C211.135529,810.820618 212.112961,812.028259 212.114410,821.029968 
	C212.116882,836.515747 212.120377,852.001587 212.123428,868.481323 
M673.571411,890.148071 
	C674.939575,889.546143 676.343018,889.012817 677.670410,888.331482 
	C689.148621,882.440613 694.853577,872.856506 694.823730,860.125671 
	C694.793762,847.346191 689.048706,837.679443 677.272278,832.287292 
	C664.712524,826.536499 651.650574,826.433899 638.845398,831.115173 
	C625.604065,835.955933 618.832642,845.945129 618.355286,860.101196 
	C617.930420,872.703003 625.011963,883.878113 637.230469,889.256042 
	C648.886169,894.386169 660.848999,893.985413 673.571411,890.148071 
M510.545593,250.802109 
	C507.424286,250.844345 504.077515,250.171555 501.226410,251.070633 
	C494.279327,253.261353 487.739929,252.920120 480.696777,251.123428 
	C465.978058,247.368774 454.291138,259.041931 457.858673,273.870911 
	C458.938873,278.360840 461.283234,283.106140 464.432037,286.419891 
	C470.585541,292.895752 477.598053,298.584290 484.486694,304.320496 
	C487.956848,307.210144 492.403748,307.809235 496.151062,305.214569 
	C505.874756,298.481903 515.361450,291.263123 521.613464,280.972260 
	C528.959595,268.880402 524.013306,255.077515 510.545593,250.802109 
M320.436005,892.120178 
	C337.451385,894.943298 352.112701,891.383179 363.164185,876.369690 
	C361.342773,875.098999 359.794922,874.019165 358.298523,872.975220 
	C347.002014,884.411255 336.574127,887.037964 326.556091,881.186035 
	C319.811249,877.246033 315.666962,866.662292 317.848267,858.172607 
	C332.139496,858.172607 346.556671,858.172607 360.917236,858.172607 
	C362.328125,842.829407 355.557953,832.722473 341.715698,829.414246 
	C333.151611,827.367493 324.516998,827.310791 316.041077,830.007629 
	C308.508759,832.404175 302.311859,836.691284 298.036774,843.489319 
	C285.689423,863.123596 295.905853,886.103333 320.436005,892.120178 
M495.751862,873.826721 
	C500.213837,879.460205 498.475891,885.822937 491.628479,887.003418 
	C487.716095,887.677917 483.268646,887.374512 479.479889,886.182922 
	C472.329468,883.934204 467.798065,878.314758 463.943146,872.046448 
	C462.880798,870.318970 460.584930,869.350098 458.256683,867.577637 
	C458.256683,876.689331 458.256683,884.117493 458.256683,893.190308 
	C461.717010,891.391235 464.041901,890.182495 467.027527,888.630249 
	C469.166931,889.363892 472.233826,890.699890 475.437134,891.463928 
	C487.677551,894.383728 499.732117,894.279907 510.500671,886.886841 
	C521.316467,879.461365 520.790894,863.901306 509.560455,857.164246 
	C505.630280,854.806580 501.033600,853.513794 496.665070,851.947144 
	C492.913269,850.601746 489.007782,849.685547 485.253082,848.347290 
	C481.461029,846.995667 478.898926,844.390930 479.582672,840.081604 
	C480.269958,835.750122 483.656128,834.237488 487.573151,833.871765 
	C497.524872,832.942749 504.012604,838.171021 508.513885,846.297302 
	C510.129395,849.213806 511.721954,850.235901 514.765991,848.520325 
	C514.392761,841.831360 514.023804,835.218689 513.621643,828.012146 
	C511.664551,828.290833 509.084564,828.033752 508.716644,828.816406 
	C506.911438,832.656799 504.429138,830.690735 502.052795,830.076416 
	C491.814819,827.430115 481.601257,826.985474 471.656586,831.128113 
	C461.791626,835.237671 457.336426,843.940247 460.270355,853.214478 
	C462.472015,860.173889 467.889313,863.886047 474.461212,866.179016 
	C481.352142,868.583313 488.260498,870.937744 495.751862,873.826721 
M375.342377,836.982727 
	C375.963837,838.422668 377.104584,839.855591 377.124207,841.303650 
	C377.273132,852.296387 377.089600,863.293518 377.231689,874.286377 
	C377.378784,885.667358 382.767090,892.028137 394.084106,892.398865 
	C400.904968,892.622253 407.805817,890.658813 414.657288,889.592041 
	C418.335297,889.019348 419.052704,886.715393 417.909760,883.131775 
	C415.099152,883.332581 412.320282,883.695068 409.541260,883.695923 
	C403.577057,883.697815 400.159454,881.740295 399.965027,876.548157 
	C399.476074,863.492737 399.803284,850.406738 399.803284,836.904663 
	C405.538544,836.904663 411.299438,836.904663 417.179504,836.904663 
	C417.179504,834.411377 417.179504,832.350952 417.179504,829.911377 
	C411.045135,829.911377 405.270020,829.911377 398.985046,829.911377 
	C398.985046,823.646912 398.985046,817.744995 398.985046,811.730225 
	C391.570618,811.730225 384.686920,811.730225 377.256958,811.730225 
	C377.256958,817.969788 377.256958,823.857239 377.256958,830.103394 
	C373.113281,830.103394 369.512695,830.103394 365.664429,830.103394 
	C365.664429,832.549927 365.664429,834.609436 365.664429,836.967896 
	C368.781494,836.967896 371.586395,836.967896 375.342377,836.982727 
M439.947845,211.460434 
	C440.735474,210.605408 441.599274,209.808197 442.298950,208.886429 
	C449.374237,199.565567 449.223541,186.495316 441.965424,177.376663 
	C434.528442,168.033371 421.840424,165.090485 410.911072,170.173843 
	C400.577911,174.979935 394.850037,186.384308 396.835632,197.843948 
	C400.243744,217.513199 424.483185,225.923874 439.947845,211.460434 
M548.975952,170.342606 
	C536.856018,177.305222 531.857666,189.813126 536.295837,202.073761 
	C540.361694,213.306061 552.373169,220.531677 564.019592,218.588440 
	C574.482605,216.842621 581.648193,210.841568 584.757568,200.761307 
	C587.806152,190.878387 585.472168,181.838928 577.895447,174.754105 
	C569.689331,167.080673 560.051147,165.819046 548.975952,170.342606 
M434.253876,324.219879 
	C433.578583,318.455627 430.251617,315.372803 425.703278,316.466400 
	C422.020477,317.351837 419.368561,319.974335 420.203583,323.567963 
	C420.799988,326.134827 423.232880,329.301361 425.605164,330.202393 
	C429.760590,331.780731 432.885742,329.301514 434.253876,324.219879 
M587.341431,314.661011 
	C589.527649,311.551208 589.695496,308.061493 586.928528,305.698730 
	C585.107056,304.143402 581.622009,303.039001 579.527344,303.719482 
	C577.404907,304.409058 575.058716,307.383820 574.704163,309.653473 
	C574.388000,311.677429 576.126221,314.765045 577.909485,316.203827 
	C580.730652,318.479950 584.109375,317.868011 587.341431,314.661011 
M548.250793,324.302002 
	C548.949890,327.977264 551.143127,330.670074 554.830200,330.524628 
	C557.116394,330.434387 560.317078,328.978760 561.307129,327.157440 
	C562.401489,325.144409 562.306091,321.488770 561.116333,319.525940 
	C560.047729,317.763000 556.762695,316.426086 554.509216,316.501831 
	C550.584717,316.633759 548.565552,319.623962 548.250793,324.302002 
M562.376465,292.185669 
	C561.343140,288.699677 558.850403,286.508392 555.403870,287.087250 
	C553.119141,287.470947 550.059631,289.188049 549.294678,291.091125 
	C548.437622,293.223419 548.919739,297.016144 550.402039,298.651764 
	C551.891418,300.295135 555.506897,301.078888 557.871216,300.614166 
	C561.496643,299.901581 562.937744,296.661377 562.376465,292.185669 
M402.783936,317.203857 
	C408.891327,313.964996 410.155579,307.167847 404.820343,304.490021 
	C402.634491,303.392914 398.694916,303.581085 396.728882,304.916077 
	C394.986237,306.099426 393.939606,309.803925 394.249786,312.178101 
	C394.769440,316.155365 398.061554,317.707336 402.783936,317.203857 
M420.204681,295.970520 
	C421.519714,299.817657 424.425507,302.006958 428.183594,300.917267 
	C430.450928,300.259857 432.960327,297.857941 433.861389,295.632690 
	C435.479919,291.635651 432.367737,287.522217 428.158447,286.960358 
	C423.451233,286.332031 420.475159,289.349548 420.204681,295.970520 
z"/>
<path fill="#CEA68A" opacity="1.000000" stroke="none" 
	d="
M607.523254,400.898193 
	C607.964600,400.984833 608.406006,401.071442 608.949829,401.779053 
	C609.554688,403.678101 609.726440,405.720123 610.615356,406.104797 
	C614.944458,407.978088 619.431152,409.514526 623.929199,410.961548 
	C627.547852,412.125732 631.262390,412.991913 634.934326,413.990356 
	C635.585144,422.433533 636.396729,430.867950 636.857239,439.321503 
	C638.358337,466.879669 639.688721,494.447083 641.166443,522.006592 
	C642.429871,545.570068 643.808350,569.127441 645.130981,592.687744 
	C646.491333,616.918823 647.788208,641.153564 649.220947,665.380310 
	C650.368713,684.788574 651.685120,704.186707 652.899597,723.591064 
	C652.971191,724.735962 652.800781,725.896057 652.720337,727.503357 
	C644.229309,727.973816 635.825012,728.519104 627.412964,728.891479 
	C594.518982,730.347900 561.621094,731.715942 528.727661,733.184021 
	C508.467133,734.088318 488.213409,735.144104 467.954193,736.078430 
	C437.390717,737.487976 406.825165,738.851624 376.260376,740.232117 
	C373.455536,740.358765 370.649841,740.466003 367.447144,740.036133 
	C367.015900,738.993408 366.982056,738.496887 366.966675,737.532166 
	C367.319641,724.610291 367.817688,712.158325 367.958008,699.702393 
	C368.377991,662.427612 368.669647,625.151428 368.989532,587.875549 
	C369.336609,547.433838 369.706451,506.992218 369.970154,466.549957 
	C370.084198,449.058472 369.956970,431.565460 370.411377,414.052307 
	C386.833282,414.019928 402.783142,414.008057 418.733032,413.997040 
	C422.135345,413.994690 425.537659,413.995392 428.978943,414.424255 
	C428.024109,421.975372 427.030273,429.096924 425.709442,436.287872 
	C420.585510,440.300323 419.362885,444.034454 421.199219,448.927124 
	C422.956055,453.607971 426.626587,455.501465 431.291809,455.593842 
	C435.368927,455.674561 440.069489,451.986206 440.786713,448.066803 
	C441.640778,443.399902 441.179932,439.033386 436.087372,436.210754 
	C436.763794,428.166199 437.516510,420.541656 438.783234,412.940857 
	C466.753021,412.642731 494.208191,412.238556 521.664856,412.042603 
	C531.535461,411.972168 541.409607,412.403076 551.467651,412.703094 
	C551.653198,412.801025 552.029968,412.988190 552.016846,413.343994 
	C552.289551,414.812958 552.575439,415.926056 552.853027,417.365784 
	C552.913269,418.120911 552.981812,418.549377 553.032227,419.363495 
	C553.159180,420.502747 553.304138,421.256409 553.377319,422.362244 
	C553.583191,424.124390 553.860901,425.534393 554.115906,427.334808 
	C554.238281,428.487549 554.383301,429.249878 554.428833,430.390625 
	C553.456543,432.463043 552.740906,434.263397 551.680664,435.830688 
	C548.738831,440.179321 548.942322,445.481689 552.463745,449.011047 
	C555.490723,452.044922 559.030701,453.482300 563.302612,451.886139 
	C567.815308,450.199982 570.489685,446.783203 570.496033,442.111664 
	C570.502563,437.274689 567.950989,433.627747 563.106934,431.507690 
	C562.308960,424.737244 561.542908,418.404053 561.199097,412.007996 
	C565.359680,411.947815 569.101379,412.054230 572.835510,411.931091 
	C580.286438,411.685394 587.730591,411.166321 595.182434,411.029053 
	C606.001831,410.829773 604.963074,412.175659 605.409546,401.000885 
	C606.395325,400.959137 606.959290,400.928650 607.523254,400.898193 
M537.762390,610.512329 
	C549.691895,607.809265 556.566040,599.251526 554.733643,587.517151 
	C553.935425,582.405273 551.156494,577.155640 547.975098,572.954529 
	C540.982239,563.720215 533.086853,555.174500 525.694580,546.236206 
	C515.442017,533.839294 502.143250,531.672180 490.181702,540.695190 
	C488.474091,541.983337 486.905640,543.541260 485.555267,545.203796 
	C477.507996,555.111450 469.545990,565.088379 461.551056,575.038635 
	C453.311676,585.293152 453.978821,598.721191 463.441223,606.816284 
	C470.011383,612.437073 477.902771,612.740662 485.585938,610.110413 
	C498.978333,605.525818 512.143921,605.131470 525.629150,609.591553 
	C529.137451,610.751831 533.150940,610.384705 537.762390,610.512329 
M495.019257,529.601746 
	C503.483521,520.129944 502.466370,504.507965 492.831604,496.002014 
	C482.738464,487.091461 471.036987,490.727325 467.869263,503.820099 
	C465.661530,512.945068 468.139038,520.961975 474.427551,527.680969 
	C480.459778,534.126160 487.626953,534.812195 495.019257,529.601746 
M541.932678,512.108643 
	C541.922424,509.944519 542.182861,507.738007 541.851807,505.624146 
	C540.816956,499.016449 538.104553,493.414001 531.174072,491.256165 
	C524.629639,489.218536 519.288757,491.966461 515.158264,496.725861 
	C508.524170,504.370026 506.834625,513.413696 510.234650,522.866394 
	C514.054871,533.487305 525.078491,535.974548 533.649536,528.574158 
	C538.414185,524.460266 540.635803,518.973511 541.932678,512.108643 
M541.788269,552.439087 
	C546.293823,558.464111 551.002991,560.028076 557.771484,557.747437 
	C567.739685,554.388550 574.297913,541.408752 571.104248,531.359863 
	C568.894531,524.406799 562.560791,520.924072 555.503723,522.781616 
	C543.426941,525.960449 536.789185,539.637085 541.788269,552.439087 
M469.080566,538.750183 
	C467.249542,532.947144 463.787659,528.424316 458.448700,525.448792 
	C449.460632,520.439514 439.966339,524.742065 438.181854,534.589172 
	C436.531342,543.696960 442.588257,554.789001 451.130432,558.324219 
	C456.084076,560.374512 461.000244,560.528809 465.239899,556.956787 
	C470.801208,552.271362 470.869476,546.032837 469.080566,538.750183 
z"/>
<path fill="#3E3F41" opacity="1.000000" stroke="none" 
	d="
M350.959778,83.973518 
	C372.743469,77.920097 394.305908,73.005310 416.732178,73.736031 
	C419.386749,73.822525 422.051666,74.158310 424.671265,74.612381 
	C428.413239,75.260994 431.217834,77.251312 431.938812,81.180313 
	C432.636902,84.984764 431.177399,87.919113 427.909943,90.141312 
	C421.853729,94.260147 415.942352,98.591125 409.926239,102.769852 
	C384.441833,120.471138 369.781921,145.597717 361.966034,174.830887 
	C356.169373,196.511642 351.951263,218.612595 346.935120,240.504639 
	C344.482025,251.210663 341.965942,261.907623 339.160309,272.524658 
	C338.151489,276.342133 336.598663,280.139557 334.611908,283.548523 
	C330.780426,290.122681 324.668488,290.931061 319.381714,285.361450 
	C316.106506,281.911041 313.093994,277.885254 311.116241,273.587341 
	C303.588959,257.229706 292.762115,243.126877 281.831635,229.047516 
	C272.414490,216.917435 263.507050,204.441162 258.395081,189.762268 
	C251.084595,168.770370 254.611038,149.678406 269.287415,132.955704 
	C284.530731,115.586983 304.037781,104.067757 324.561401,94.240578 
	C332.934143,90.231506 341.886200,87.432198 350.959778,83.973518 
z"/>
<path fill="#3E3F41" opacity="1.000000" stroke="none" 
	d="
M688.192505,111.804031 
	C696.425476,118.812622 705.073975,124.961700 712.134949,132.581818 
	C728.453247,150.192642 731.221313,170.714081 722.477905,192.861633 
	C716.094788,209.030334 704.897522,222.136948 694.982361,236.105515 
	C686.737427,247.721085 679.563843,260.096100 671.884705,272.114868 
	C669.293396,276.170563 666.972473,280.474426 663.887390,284.123383 
	C657.659302,291.489899 650.449829,290.467041 646.274841,281.709747 
	C644.427063,277.833801 642.952271,273.674927 642.017456,269.486176 
	C636.582825,245.134125 631.497620,220.703842 626.019043,196.361969 
	C621.881714,177.979660 615.959839,160.188049 607.662048,143.194595 
	C598.361572,124.147758 583.126648,110.715012 566.393311,98.624771 
	C562.617432,95.896606 558.745178,93.297508 554.855591,90.732460 
	C551.375305,88.437286 549.199097,85.522392 550.078796,81.150635 
	C550.975647,76.693016 554.345154,74.556000 558.363342,74.503021 
	C568.641907,74.367477 579.035339,73.897095 589.191040,75.134674 
	C624.899414,79.486115 658.159241,90.877190 688.192505,111.804031 
z"/>
<path fill="#C59D85" opacity="1.000000" stroke="none" 
	d="
M307.478821,710.042480 
	C307.943207,700.762512 308.358826,691.479797 308.880585,682.203125 
	C310.964294,645.154785 313.051758,608.106628 315.196930,571.061829 
	C316.408569,550.138184 317.726746,529.220703 319.012024,508.301422 
	C320.919556,477.255188 322.846771,446.210236 324.744598,415.163422 
	C324.907196,412.503357 324.592255,409.766815 325.128662,407.197205 
	C325.390503,405.942780 327.102814,404.991150 328.855530,404.236816 
	C335.705780,406.027069 341.859070,407.482941 348.007874,409.412415 
	C347.340637,426.133942 346.632538,442.380157 346.030762,458.630341 
	C345.612762,469.917664 345.299286,481.209290 345.012299,492.500885 
	C344.319672,519.747803 343.676086,546.995972 343.000061,574.243286 
	C342.682739,587.034180 342.250732,599.822815 342.021759,612.615234 
	C341.619843,635.071045 341.327332,657.528748 341.006744,679.986023 
	C340.954407,683.651917 340.993195,687.319092 340.632568,691.026855 
	C334.609863,694.435791 328.973511,697.853882 323.270416,701.156677 
	C318.044006,704.183289 312.745544,707.085449 307.478821,710.042480 
z"/>
<path fill="#494B4E" opacity="1.000000" stroke="none" 
	d="
M586.007629,890.993713 
	C581.201172,890.994385 576.892883,890.994385 572.534668,890.994385 
	C571.284668,887.662842 571.984863,886.058228 575.480713,885.936035 
	C578.795837,885.820129 580.141785,883.633911 580.147522,880.592590 
	C580.167480,869.931091 580.360168,859.260681 579.992859,848.610779 
	C579.749390,841.552063 575.907104,838.236816 569.610779,838.547729 
	C562.157654,838.915771 556.337524,843.851624 556.310486,849.938171 
	C556.269043,859.268433 556.402527,868.600403 556.267151,877.928833 
	C556.204834,882.225403 557.832825,884.751892 562.087219,885.973083 
	C563.485535,886.374512 564.442749,888.312805 565.601685,889.548340 
	C565.275146,889.937134 564.948669,890.325989 564.622192,890.714783 
	C551.508484,890.714783 538.394775,890.714783 525.079956,890.714783 
	C523.809570,887.993469 523.898254,886.143433 527.777832,886.008850 
	C532.467163,885.846313 534.477966,883.293396 534.455505,878.561279 
	C534.350952,856.568665 534.439270,834.575256 534.360168,812.582458 
	C534.333984,805.283691 532.399780,803.556580 521.799316,801.408386 
	C522.806213,799.758240 523.546814,797.305786 524.457825,797.240784 
	C534.867004,796.497681 545.302185,796.118347 556.359375,795.613159 
	C556.359375,809.913818 556.359375,823.627502 556.359375,838.542480 
	C558.710327,836.772278 560.128418,835.769165 561.476013,834.679016 
	C568.368896,829.102722 576.357544,827.359680 584.938660,828.389893 
	C595.211121,829.623291 601.664917,836.741150 601.966248,847.297058 
	C602.246704,857.119629 602.298645,866.963257 601.982056,876.782471 
	C601.812927,882.029968 603.635559,884.895020 608.787048,886.077637 
	C610.148804,886.390259 611.151123,888.268433 612.318420,889.427673 
	C611.994690,889.949463 611.670898,890.471252 611.347168,890.993042 
	C603.066711,890.993042 594.786194,890.993042 586.007629,890.993713 
z"/>
<path fill="#47494C" opacity="1.000000" stroke="none" 
	d="
M711.598999,844.338318 
	C711.093323,838.952881 708.166443,836.436401 703.457520,835.945679 
	C700.248657,835.611145 699.559326,834.023621 700.694092,830.688843 
	C711.244934,830.146545 721.968140,829.595398 733.060364,829.025269 
	C733.265564,831.477966 733.440796,833.572144 733.690002,836.551086 
	C742.650452,829.371277 752.396057,825.695007 763.043762,829.581116 
	C768.100281,831.426575 773.241333,834.836975 776.694092,838.930237 
	C785.696350,849.602783 785.532654,868.352112 777.455078,879.552490 
	C770.371460,889.374634 755.064880,897.620789 733.889343,889.099731 
	C733.889343,895.410950 733.557434,901.603699 734.113647,907.715576 
	C734.259766,909.321228 736.932800,911.205994 738.846130,912.016174 
	C741.386169,913.091553 744.319214,913.238831 747.515686,913.870300 
	C747.612488,915.129944 747.718445,916.508606 747.846680,918.177612 
	C731.881165,918.177612 716.297668,918.177612 700.319641,918.177612 
	C700.254700,916.806213 700.188599,915.410400 700.129578,914.164551 
	C700.756470,913.842468 701.034485,913.602539 701.341797,913.555786 
	C711.555725,912.003174 711.646912,911.892395 711.644348,901.716797 
	C711.639587,882.742737 711.645264,863.768738 711.598999,844.338318 
M747.024536,837.888428 
	C745.860046,837.856384 744.691223,837.743835 743.531677,837.805420 
	C735.965698,838.207458 733.292053,841.072510 733.311157,848.667847 
	C733.331665,856.832581 733.332764,864.997253 733.354919,873.161987 
	C733.374084,880.224121 737.030701,885.446655 742.796631,886.678894 
	C748.923767,887.988342 754.416565,884.710266 757.023926,877.722168 
	C760.633972,868.046814 760.706543,858.134949 757.823303,848.285706 
	C756.351624,843.258423 753.229370,839.447937 747.024536,837.888428 
z"/>
<path fill="#484B4D" opacity="1.000000" stroke="none" 
	d="
M212.123444,867.984375 
	C212.120377,852.001587 212.116882,836.515747 212.114410,821.029968 
	C212.112961,812.028259 211.135529,810.820618 202.437515,809.124268 
	C201.318390,808.906006 200.189560,808.737549 198.837891,808.507263 
	C198.837891,806.919189 198.837891,805.502136 198.837891,803.630066 
	C206.618469,803.630066 214.239929,803.626221 221.861374,803.630981 
	C232.185120,803.637512 242.519058,803.378540 252.828674,803.765564 
	C258.768219,803.988464 264.774658,804.809998 270.559540,806.174011 
	C277.920105,807.909485 283.745453,812.155212 285.476898,819.986633 
	C287.384064,828.613159 285.760071,836.627747 279.122955,842.951050 
	C272.290497,849.460449 263.645508,851.865479 254.563217,852.781372 
	C248.609726,853.381836 242.604385,853.468140 236.042511,853.815430 
	C236.042511,862.479736 235.766602,871.226257 236.280563,879.926147 
	C236.380676,881.620300 239.322449,883.608826 241.370544,884.599182 
	C243.535416,885.646057 246.198578,885.662476 249.008652,886.198547 
	C249.103882,887.564148 249.201172,888.959534 249.321762,890.688965 
	C232.383423,890.688965 215.823837,890.688965 198.851395,890.688965 
	C198.783279,889.327881 198.712814,887.919617 198.650208,886.668579 
	C199.238510,886.320007 199.499802,886.046448 199.790878,886.009888 
	C212.116211,884.459717 212.116531,884.462341 212.123444,867.984375 
M260.187195,824.814941 
	C258.243073,812.151489 250.899277,807.507690 236.205902,809.722534 
	C236.205902,822.191284 236.205902,834.669495 236.205902,847.099731 
	C252.768860,848.614502 260.314026,841.761780 260.187195,824.814941 
z"/>
<path fill="#434444" opacity="1.000000" stroke="none" 
	d="
M461.882324,364.911438 
	C446.365356,372.485901 430.473938,374.061646 414.094055,367.909058 
	C391.021973,359.242737 376.257355,336.273956 378.126892,311.416931 
	C381.215332,326.946960 388.735413,339.707153 401.678253,348.901642 
	C414.804504,358.226471 429.385254,361.307007 446.008545,358.231201 
	C467.824371,352.811737 481.966614,340.119843 488.513397,319.267212 
	C489.156250,317.593353 489.793365,315.917175 490.456940,314.251587 
	C490.494476,314.157379 490.749054,314.149689 491.218292,314.003113 
	C501.662292,345.994232 523.014709,363.418091 557.367371,358.270477 
	C583.266235,354.389648 598.098755,336.849121 603.697632,311.748779 
	C607.998901,337.395111 583.953430,374.332275 542.130981,371.342163 
	C540.377075,371.784943 539.430115,372.373077 538.453125,372.933777 
	C538.423096,372.906342 538.419373,372.922211 538.419373,372.922211 
	C538.265137,372.326874 538.245422,371.295807 537.936829,371.200531 
	C531.814697,369.310486 525.659241,367.528748 519.248657,366.292114 
	C518.986877,366.859192 519.009827,366.953369 518.998657,366.982605 
	C518.987549,367.011810 519.045898,367.034271 519.120361,366.951813 
	C519.194885,366.869354 519.096375,366.670135 519.588257,366.648926 
	C520.099365,366.056824 520.118713,365.485962 519.927856,364.647919 
	C504.143341,355.328888 494.861542,341.705719 490.911774,324.088013 
	C487.292755,342.315247 477.137726,355.424713 461.882324,364.911438 
z"/>
<path fill="#484B4D" opacity="1.000000" stroke="none" 
	d="
M673.217285,890.321289 
	C660.848999,893.985413 648.886169,894.386169 637.230469,889.256042 
	C625.011963,883.878113 617.930420,872.703003 618.355286,860.101196 
	C618.832642,845.945129 625.604065,835.955933 638.845398,831.115173 
	C651.650574,826.433899 664.712524,826.536499 677.272278,832.287292 
	C689.048706,837.679443 694.793762,847.346191 694.823730,860.125671 
	C694.853577,872.856506 689.148621,882.440613 677.670410,888.331482 
	C676.343018,889.012817 674.939575,889.546143 673.217285,890.321289 
M670.726685,863.228943 
	C669.936035,856.321106 669.673462,849.298096 668.199585,842.539246 
	C666.848145,836.341797 662.240356,833.197205 656.819763,833.149780 
	C651.289062,833.101379 646.784790,836.048279 645.043335,842.127563 
	C641.492981,854.521667 641.307129,867.084595 645.299438,879.447998 
	C647.084656,884.976379 651.312683,887.826599 656.443787,887.887451 
	C661.817871,887.951111 666.155762,885.139771 667.915466,879.278320 
	C669.382019,874.393127 669.813049,869.197083 670.726685,863.228943 
z"/>
<path fill="#404042" opacity="1.000000" stroke="none" 
	d="
M510.938599,250.900360 
	C524.013306,255.077515 528.959595,268.880402 521.613464,280.972260 
	C515.361450,291.263123 505.874756,298.481903 496.151062,305.214569 
	C492.403748,307.809235 487.956848,307.210144 484.486694,304.320496 
	C477.598053,298.584290 470.585541,292.895752 464.432037,286.419891 
	C461.283234,283.106140 458.938873,278.360840 457.858673,273.870911 
	C454.291138,259.041931 465.978058,247.368774 480.696777,251.123428 
	C487.739929,252.920120 494.279327,253.261353 501.226410,251.070633 
	C504.077515,250.171555 507.424286,250.844345 510.938599,250.900360 
M476.209442,264.489502 
	C474.608368,262.684814 473.300262,260.175049 471.295441,259.341919 
	C470.107422,258.848236 467.124756,260.558990 466.173004,262.056458 
	C464.264191,265.059662 465.440460,268.044891 468.716156,269.390442 
	C472.553864,270.966858 475.109863,269.262482 476.209442,264.489502 
z"/>
<path fill="#484B4D" opacity="1.000000" stroke="none" 
	d="
M320.015381,892.050781 
	C295.905853,886.103333 285.689423,863.123596 298.036774,843.489319 
	C302.311859,836.691284 308.508759,832.404175 316.041077,830.007629 
	C324.516998,827.310791 333.151611,827.367493 341.715698,829.414246 
	C355.557953,832.722473 362.328125,842.829407 360.917236,858.172607 
	C346.556671,858.172607 332.139496,858.172607 317.848267,858.172607 
	C315.666962,866.662292 319.811249,877.246033 326.556091,881.186035 
	C336.574127,887.037964 347.002014,884.411255 358.298523,872.975220 
	C359.794922,874.019165 361.342773,875.098999 363.164185,876.369690 
	C352.112701,891.383179 337.451385,894.943298 320.015381,892.050781 
M331.374359,852.895142 
	C333.466583,852.895142 335.558777,852.895142 338.201752,852.895142 
	C337.633148,848.316589 337.486938,844.465332 336.607025,840.789734 
	C335.687744,836.949646 333.673309,833.614807 329.086792,833.237122 
	C324.742889,832.879517 321.408020,834.990234 319.924225,838.781677 
	C318.235809,843.096069 317.489258,847.778992 316.181183,852.896973 
	C321.817993,852.896973 326.112274,852.896973 331.374359,852.895142 
z"/>
<path fill="#494B4E" opacity="1.000000" stroke="none" 
	d="
M495.456543,873.570312 
	C488.260498,870.937744 481.352142,868.583313 474.461212,866.179016 
	C467.889313,863.886047 462.472015,860.173889 460.270355,853.214478 
	C457.336426,843.940247 461.791626,835.237671 471.656586,831.128113 
	C481.601257,826.985474 491.814819,827.430115 502.052795,830.076416 
	C504.429138,830.690735 506.911438,832.656799 508.716644,828.816406 
	C509.084564,828.033752 511.664551,828.290833 513.621643,828.012146 
	C514.023804,835.218689 514.392761,841.831360 514.765991,848.520325 
	C511.721954,850.235901 510.129395,849.213806 508.513885,846.297302 
	C504.012604,838.171021 497.524872,832.942749 487.573151,833.871765 
	C483.656128,834.237488 480.269958,835.750122 479.582672,840.081604 
	C478.898926,844.390930 481.461029,846.995667 485.253082,848.347290 
	C489.007782,849.685547 492.913269,850.601746 496.665070,851.947144 
	C501.033600,853.513794 505.630280,854.806580 509.560455,857.164246 
	C520.790894,863.901306 521.316467,879.461365 510.500671,886.886841 
	C499.732117,894.279907 487.677551,894.383728 475.437134,891.463928 
	C472.233826,890.699890 469.166931,889.363892 467.027527,888.630249 
	C464.041901,890.182495 461.717010,891.391235 458.256683,893.190308 
	C458.256683,884.117493 458.256683,876.689331 458.256683,867.577637 
	C460.584930,869.350098 462.880798,870.318970 463.943146,872.046448 
	C467.798065,878.314758 472.329468,883.934204 479.479889,886.182922 
	C483.268646,887.374512 487.716095,887.677917 491.628479,887.003418 
	C498.475891,885.822937 500.213837,879.460205 495.456543,873.570312 
z"/>
<path fill="#4A4B4D" opacity="1.000000" stroke="none" 
	d="
M374.866821,836.975342 
	C371.586395,836.967896 368.781494,836.967896 365.664429,836.967896 
	C365.664429,834.609436 365.664429,832.549927 365.664429,830.103394 
	C369.512695,830.103394 373.113281,830.103394 377.256958,830.103394 
	C377.256958,823.857239 377.256958,817.969788 377.256958,811.730225 
	C384.686920,811.730225 391.570618,811.730225 398.985046,811.730225 
	C398.985046,817.744995 398.985046,823.646912 398.985046,829.911377 
	C405.270020,829.911377 411.045135,829.911377 417.179504,829.911377 
	C417.179504,832.350952 417.179504,834.411377 417.179504,836.904663 
	C411.299438,836.904663 405.538544,836.904663 399.803284,836.904663 
	C399.803284,850.406738 399.476074,863.492737 399.965027,876.548157 
	C400.159454,881.740295 403.577057,883.697815 409.541260,883.695923 
	C412.320282,883.695068 415.099152,883.332581 417.909760,883.131775 
	C419.052704,886.715393 418.335297,889.019348 414.657288,889.592041 
	C407.805817,890.658813 400.904968,892.622253 394.084106,892.398865 
	C382.767090,892.028137 377.378784,885.667358 377.231689,874.286377 
	C377.089600,863.293518 377.273132,852.296387 377.124207,841.303650 
	C377.104584,839.855591 375.963837,838.422668 374.866821,836.975342 
z"/>
<path fill="#404142" opacity="1.000000" stroke="none" 
	d="
M439.678650,211.694458 
	C424.483185,225.923874 400.243744,217.513199 396.835632,197.843948 
	C394.850037,186.384308 400.577911,174.979935 410.911072,170.173843 
	C421.840424,165.090485 434.528442,168.033371 441.965424,177.376663 
	C449.223541,186.495316 449.374237,199.565567 442.298950,208.886429 
	C441.599274,209.808197 440.735474,210.605408 439.678650,211.694458 
M413.224945,177.558487 
	C407.741302,178.323303 404.820496,181.593124 406.830963,185.465408 
	C407.842194,187.413116 410.809845,189.727539 412.621674,189.519150 
	C414.775574,189.271408 417.648315,186.845627 418.392242,184.725845 
	C419.531403,181.479843 417.545593,178.725830 413.224945,177.558487 
z"/>
<path fill="#404142" opacity="1.000000" stroke="none" 
	d="
M549.324951,170.184631 
	C560.051147,165.819046 569.689331,167.080673 577.895447,174.754105 
	C585.472168,181.838928 587.806152,190.878387 584.757568,200.761307 
	C581.648193,210.841568 574.482605,216.842621 564.019592,218.588440 
	C552.373169,220.531677 540.361694,213.306061 536.295837,202.073761 
	C531.857666,189.813126 536.856018,177.305222 549.324951,170.184631 
M557.096863,184.340744 
	C556.264465,179.021454 553.581482,176.596741 549.479309,177.695007 
	C545.612061,178.730392 543.895691,181.665237 545.208252,185.219070 
	C545.908752,187.115616 548.745361,189.714844 550.236450,189.488129 
	C552.644714,189.121979 554.738159,186.685364 557.096863,184.340744 
z"/>
<path fill="#DDB39C" opacity="1.000000" stroke="none" 
	d="
M551.282166,412.605164 
	C541.409607,412.403076 531.535461,411.972168 521.664856,412.042603 
	C494.208191,412.238556 466.753021,412.642731 438.836426,412.506409 
	C438.975586,408.664673 439.575623,405.281128 440.175629,401.897644 
	C454.931915,401.575287 469.687744,401.228851 484.444641,400.936798 
	C502.360413,400.582184 520.277100,400.273468 539.107300,399.921692 
	C542.360229,399.945435 544.699280,399.992432 547.235962,400.222473 
	C547.928528,400.600220 548.423523,400.794922 549.081665,400.939636 
	C549.244873,400.889648 549.585999,400.900177 549.533081,401.254822 
	C549.979431,403.411530 550.478577,405.213654 550.964844,407.351440 
	C551.054810,408.120636 551.157715,408.554199 551.220215,409.350922 
	C551.213928,410.677765 551.248047,411.641479 551.282166,412.605164 
z"/>
<path fill="#B18978" opacity="1.000000" stroke="none" 
	d="
M307.382019,710.372375 
	C312.745544,707.085449 318.044006,704.183289 323.270416,701.156677 
	C328.973511,697.853882 334.609863,694.435791 340.902039,691.246887 
	C346.390930,700.926453 351.103455,710.507935 356.168243,719.899353 
	C359.498657,726.074829 363.337219,731.976196 366.948212,738.000305 
	C366.982056,738.496887 367.015900,738.993408 367.105194,739.862061 
	C360.829865,737.425659 354.423004,734.775391 348.184235,731.775574 
	C335.315247,725.588013 322.527405,719.231201 309.737274,712.881348 
	C308.792267,712.412109 308.096710,711.440430 307.382019,710.372375 
z"/>
<path fill="#DDB39C" opacity="1.000000" stroke="none" 
	d="
M348.012390,408.938812 
	C341.859070,407.482941 335.705780,406.027069 329.281433,404.277222 
	C330.608032,403.717743 332.203217,403.239136 333.803711,403.220612 
	C345.634003,403.083466 357.466583,403.120850 369.296112,402.944885 
	C388.604523,402.657745 407.911163,402.250214 428.090454,401.886597 
	C429.487427,403.231781 430.519531,404.617828 430.431793,405.928894 
	C430.250397,408.638611 429.472504,411.308441 428.939972,413.994659 
	C425.537659,413.995392 422.135345,413.994690 418.733032,413.997040 
	C402.783142,414.008057 386.833282,414.019928 370.012634,414.026733 
	C367.374939,413.618713 365.603088,413.235657 363.842010,412.808411 
	C358.563202,411.527832 353.288605,410.229950 348.012390,408.938812 
z"/>
<path fill="#B7282C" opacity="1.000000" stroke="none" 
	d="
M471.998474,370.976715 
	C471.998474,370.976715 471.752014,370.750397 471.341736,370.498779 
	C468.964539,369.490234 466.997589,368.733276 465.030609,367.976349 
	C465.030609,367.976349 465.002563,368.000000 464.950317,367.622955 
	C465.358551,366.643890 465.699738,365.861206 466.297241,365.466705 
	C477.007202,358.395142 485.009735,349.079773 489.966309,337.193970 
	C490.174866,336.693878 490.712952,336.331238 491.313080,335.665344 
	C497.290344,349.386353 505.732452,360.393005 519.045898,367.034271 
	C519.045898,367.034271 518.987549,367.011810 518.955811,367.275452 
	C518.807434,367.912964 518.690674,368.286835 518.573914,368.660736 
	C518.573914,368.660736 518.862610,368.756836 518.361328,368.721191 
	C510.896179,370.388702 503.932404,372.091827 496.968597,373.794952 
	C496.535248,373.762085 496.101929,373.729187 495.089172,373.628571 
	C493.330200,373.663055 492.150696,373.765289 490.971161,373.867554 
	C489.887268,373.749420 488.803345,373.631287 486.995453,373.418518 
	C481.513794,372.541504 476.756134,371.759125 471.998474,370.976715 
z"/>
<path fill="#4A4B4D" opacity="1.000000" stroke="none" 
	d="
M428.978943,414.424255 
	C429.472504,411.308441 430.250397,408.638611 430.431793,405.928894 
	C430.519531,404.617828 429.487427,403.231781 428.570007,401.872864 
	C430.241486,394.555969 432.397644,387.270294 434.331970,379.926147 
	C435.366486,375.998352 437.138428,373.463989 441.713165,373.906799 
	C443.285461,374.058990 444.922760,373.539795 446.871765,373.282196 
	C444.570190,382.769104 442.346649,391.934326 440.149353,401.498596 
	C439.575623,405.281128 438.975586,408.664673 438.322388,412.482635 
	C437.516510,420.541656 436.763794,428.166199 436.039673,436.600830 
	C436.048065,438.446381 436.027832,439.481934 435.764954,440.862244 
	C435.363953,442.350769 435.557098,443.736023 434.972534,444.587006 
	C433.828522,446.252380 432.250610,447.619598 430.852295,449.110260 
	C429.547913,447.532440 427.992584,446.093048 427.021179,444.331604 
	C426.288666,443.003357 426.303711,441.262848 425.990936,439.355804 
	C426.009399,438.076660 426.022949,437.147583 426.036469,436.218475 
	C427.030273,429.096924 428.024109,421.975372 428.978943,414.424255 
z"/>
<path fill="#4A4B4D" opacity="1.000000" stroke="none" 
	d="
M551.260559,408.987762 
	C551.157715,408.554199 551.054810,408.120636 551.236267,407.122375 
	C550.875671,404.671814 550.230835,402.786011 549.585999,400.900177 
	C549.585999,400.900177 549.244873,400.889648 549.120911,400.526367 
	C547.074463,393.060852 545.093018,385.973663 543.275757,378.844635 
	C542.879272,377.289429 543.069580,375.584625 542.989624,373.948700 
	C550.347534,372.719696 552.499084,377.320587 553.680481,383.281311 
	C554.703430,388.442688 556.030701,393.543732 557.580078,399.328522 
	C558.883362,404.014008 559.830078,408.042419 560.776794,412.070831 
	C561.542908,418.404053 562.308960,424.737244 562.886719,431.685303 
	C563.157532,433.573059 563.616760,434.845978 564.026367,436.547180 
	C563.997864,438.634094 564.540771,440.533722 563.913025,441.892548 
	C563.057800,443.743896 561.309570,445.182648 559.944275,446.798309 
	C558.558838,445.435181 556.835144,444.268616 555.893127,442.647766 
	C555.116699,441.311737 555.266235,439.437592 555.004089,437.410736 
	C554.844604,434.683746 554.686462,432.347992 554.528320,430.012207 
	C554.383301,429.249878 554.238281,428.487549 554.356140,427.098389 
	C554.229065,424.984406 553.839111,423.497223 553.449158,422.010040 
	C553.304138,421.256409 553.159180,420.502747 553.253723,419.209412 
	C553.282654,418.126221 553.072021,417.582703 552.861328,417.039185 
	C552.575439,415.926056 552.289551,414.812958 552.272827,413.130981 
	C552.114746,411.370667 551.687683,410.179230 551.260559,408.987762 
z"/>
<path fill="#DDB39C" opacity="1.000000" stroke="none" 
	d="
M561.199097,412.007996 
	C559.830078,408.042419 558.883362,404.014008 557.877563,399.601868 
	C573.241699,399.255829 588.664978,399.293457 604.503052,399.855164 
	C604.941223,400.590210 604.964539,400.801208 604.987793,401.012177 
	C604.963074,412.175659 606.001831,410.829773 595.182434,411.029053 
	C587.730591,411.166321 580.286438,411.685394 572.835510,411.931091 
	C569.101379,412.054230 565.359680,411.947815 561.199097,412.007996 
z"/>
<path fill="#EFE0DE" opacity="1.000000" stroke="none" 
	d="
M519.120361,366.951813 
	C505.732452,360.393005 497.290344,349.386353 491.313080,335.665344 
	C490.712952,336.331238 490.174866,336.693878 489.966309,337.193970 
	C485.009735,349.079773 477.007202,358.395142 466.297241,365.466705 
	C465.699738,365.861206 465.358551,366.643890 464.959778,367.607788 
	C464.157166,367.087250 463.292847,366.204865 462.155426,365.116943 
	C477.137726,355.424713 487.292755,342.315247 490.911774,324.088013 
	C494.861542,341.705719 504.143341,355.328888 519.649109,364.867432 
	C519.419128,365.792786 519.257751,366.231476 519.096375,366.670135 
	C519.096375,366.670135 519.194885,366.869354 519.120361,366.951813 
z"/>
<path fill="#4A4B4D" opacity="1.000000" stroke="none" 
	d="
M547.038391,400.039429 
	C544.699280,399.992432 542.360229,399.945435 539.585327,399.922791 
	C536.308411,390.785065 533.467285,381.622955 530.572571,372.288239 
	C532.773499,372.666260 535.164734,373.076935 537.987671,373.204926 
	C538.419373,372.922211 538.423096,372.906342 538.567627,373.302307 
	C541.487610,382.478638 544.263000,391.259033 547.038391,400.039429 
z"/>
<path fill="#EEEEEE" opacity="1.000000" stroke="none" 
	d="
M488.195587,319.093567 
	C481.966614,340.119843 467.824371,352.811737 446.397583,358.064209 
	C445.606140,356.019379 445.356171,354.866699 448.252991,353.845490 
	C466.109924,347.550140 480.017120,336.902679 485.531616,317.269165 
	C486.448364,317.914185 487.163086,318.417053 488.195587,319.093567 
z"/>
<path fill="#434444" opacity="1.000000" stroke="none" 
	d="
M434.200439,324.575378 
	C432.885742,329.301514 429.760590,331.780731 425.605164,330.202393 
	C423.232880,329.301361 420.799988,326.134827 420.203583,323.567963 
	C419.368561,319.974335 422.020477,317.351837 425.703278,316.466400 
	C430.251617,315.372803 433.578583,318.455627 434.200439,324.575378 
z"/>
<path fill="#434444" opacity="1.000000" stroke="none" 
	d="
M587.093994,314.943176 
	C584.109375,317.868011 580.730652,318.479950 577.909485,316.203827 
	C576.126221,314.765045 574.388000,311.677429 574.704163,309.653473 
	C575.058716,307.383820 577.404907,304.409058 579.527344,303.719482 
	C581.622009,303.039001 585.107056,304.143402 586.928528,305.698730 
	C589.695496,308.061493 589.527649,311.551208 587.093994,314.943176 
z"/>
<path fill="#484849" opacity="1.000000" stroke="none" 
	d="
M548.217529,323.922241 
	C548.565552,319.623962 550.584717,316.633759 554.509216,316.501831 
	C556.762695,316.426086 560.047729,317.763000 561.116333,319.525940 
	C562.306091,321.488770 562.401489,325.144409 561.307129,327.157440 
	C560.317078,328.978760 557.116394,330.434387 554.830200,330.524628 
	C551.143127,330.670074 548.949890,327.977264 548.217529,323.922241 
z"/>
<path fill="#434444" opacity="1.000000" stroke="none" 
	d="
M562.499695,292.542480 
	C562.937744,296.661377 561.496643,299.901581 557.871216,300.614166 
	C555.506897,301.078888 551.891418,300.295135 550.402039,298.651764 
	C548.919739,297.016144 548.437622,293.223419 549.294678,291.091125 
	C550.059631,289.188049 553.119141,287.470947 555.403870,287.087250 
	C558.850403,286.508392 561.343140,288.699677 562.499695,292.542480 
z"/>
<path fill="#434444" opacity="1.000000" stroke="none" 
	d="
M402.422882,317.284454 
	C398.061554,317.707336 394.769440,316.155365 394.249786,312.178101 
	C393.939606,309.803925 394.986237,306.099426 396.728882,304.916077 
	C398.694916,303.581085 402.634491,303.392914 404.820343,304.490021 
	C410.155579,307.167847 408.891327,313.964996 402.422882,317.284454 
z"/>
<path fill="#434444" opacity="1.000000" stroke="none" 
	d="
M420.121521,295.582001 
	C420.475159,289.349548 423.451233,286.332031 428.158447,286.960358 
	C432.367737,287.522217 435.479919,291.635651 433.861389,295.632690 
	C432.960327,297.857941 430.450928,300.259857 428.183594,300.917267 
	C424.425507,302.006958 421.519714,299.817657 420.121521,295.582001 
z"/>
<path fill="#C59D85" opacity="1.000000" stroke="none" 
	d="
M634.977783,413.584778 
	C631.262390,412.991913 627.547852,412.125732 623.929199,410.961548 
	C619.431152,409.514526 614.944458,407.978088 610.615356,406.104797 
	C609.726440,405.720123 609.554688,403.678101 609.084961,401.972717 
	C617.067993,404.373779 625.045593,407.130524 632.933289,410.124390 
	C633.879395,410.483521 634.337158,412.129608 634.977783,413.584778 
z"/>
<path fill="#EFE0DE" opacity="1.000000" stroke="none" 
	d="
M547.235962,400.222473 
	C544.263000,391.259033 541.487610,382.478638 538.597656,373.329712 
	C539.430115,372.373077 540.377075,371.784943 541.668457,371.344482 
	C542.250671,372.107971 542.488464,372.723785 542.857971,373.644165 
	C543.069580,375.584625 542.879272,377.289429 543.275757,378.844635 
	C545.093018,385.973663 547.074463,393.060852 548.957764,400.576355 
	C548.423523,400.794922 547.928528,400.600220 547.235962,400.222473 
z"/>
<path fill="#EFE0DE" opacity="1.000000" stroke="none" 
	d="
M496.996368,374.189697 
	C503.932404,372.091827 510.896179,370.388702 518.229553,368.645142 
	C519.548706,372.379700 516.881836,372.454041 514.342285,373.002960 
	C509.672577,374.012299 505.087006,375.427032 500.400024,376.327362 
	C499.422394,376.515137 498.156952,375.204498 496.996368,374.189697 
z"/>
<path fill="#EFE0DE" opacity="1.000000" stroke="none" 
	d="
M472.161224,371.303619 
	C476.756134,371.759125 481.513794,372.541504 486.681824,373.510254 
	C485.280609,374.370239 483.265472,375.906952 481.699921,375.537689 
	C478.448303,374.770752 475.435150,372.992859 472.161224,371.303619 
z"/>
<path fill="#EFE0DE" opacity="1.000000" stroke="none" 
	d="
M465.056824,368.327087 
	C466.997589,368.733276 468.964539,369.490234 471.174744,370.508362 
	C468.768219,371.702057 466.178925,372.451508 465.056824,368.327087 
z"/>
<path fill="#EFE0DE" opacity="1.000000" stroke="none" 
	d="
M491.031555,374.205322 
	C492.150696,373.765289 493.330200,373.663055 494.772095,373.710510 
	C493.953156,375.432129 492.918915,377.276031 491.031555,374.205322 
z"/>
<path fill="#C59D85" opacity="1.000000" stroke="none" 
	d="
M605.409546,401.000885 
	C604.964539,400.801208 604.941223,400.590210 604.847900,400.066772 
	C605.524170,399.930664 606.270447,400.106995 607.269958,400.590759 
	C606.959290,400.928650 606.395325,400.959137 605.409546,401.000885 
z"/>
<path fill="#EFE0DE" opacity="1.000000" stroke="none" 
	d="
M518.949585,368.591309 
	C518.690674,368.286835 518.807434,367.912964 518.966980,367.246216 
	C519.009827,366.953369 518.986877,366.859192 518.985596,366.815857 
	C519.097900,367.355621 519.211548,367.938751 518.949585,368.591309 
z"/>
<path fill="#BD937B" opacity="1.000000" stroke="none" 
	d="
M348.007874,409.412415 
	C353.288605,410.229950 358.563202,411.527832 363.842010,412.808411 
	C365.603088,413.235657 367.374939,413.618713 369.540588,414.047546 
	C369.956970,431.565460 370.084198,449.058472 369.970154,466.549957 
	C369.706451,506.992218 369.336609,547.433838 368.989532,587.875549 
	C368.669647,625.151428 368.377991,662.427612 367.958008,699.702393 
	C367.817688,712.158325 367.319641,724.610291 366.966675,737.532166 
	C363.337219,731.976196 359.498657,726.074829 356.168243,719.899353 
	C351.103455,710.507935 346.390930,700.926453 341.259277,691.205688 
	C340.993195,687.319092 340.954407,683.651917 341.006744,679.986023 
	C341.327332,657.528748 341.619843,635.071045 342.021759,612.615234 
	C342.250732,599.822815 342.682739,587.034180 343.000061,574.243286 
	C343.676086,546.995972 344.319672,519.747803 345.012299,492.500885 
	C345.299286,481.209290 345.612762,469.917664 346.030762,458.630341 
	C346.632538,442.380157 347.340637,426.133942 348.007874,409.412415 
z"/>
<path fill="#46484A" opacity="1.000000" stroke="none" 
	d="
M537.347412,610.615723 
	C533.150940,610.384705 529.137451,610.751831 525.629150,609.591553 
	C512.143921,605.131470 498.978333,605.525818 485.585938,610.110413 
	C477.902771,612.740662 470.011383,612.437073 463.441223,606.816284 
	C453.978821,598.721191 453.311676,585.293152 461.551056,575.038635 
	C469.545990,565.088379 477.507996,555.111450 485.555267,545.203796 
	C486.905640,543.541260 488.474091,541.983337 490.181702,540.695190 
	C502.143250,531.672180 515.442017,533.839294 525.694580,546.236206 
	C533.086853,555.174500 540.982239,563.720215 547.975098,572.954529 
	C551.156494,577.155640 553.935425,582.405273 554.733643,587.517151 
	C556.566040,599.251526 549.691895,607.809265 537.347412,610.615723 
z"/>
<path fill="#484849" opacity="1.000000" stroke="none" 
	d="
M494.739319,529.848694 
	C487.626953,534.812195 480.459778,534.126160 474.427551,527.680969 
	C468.139038,520.961975 465.661530,512.945068 467.869263,503.820099 
	C471.036987,490.727325 482.738464,487.091461 492.831604,496.002014 
	C502.466370,504.507965 503.483521,520.129944 494.739319,529.848694 
z"/>
<path fill="#484849" opacity="1.000000" stroke="none" 
	d="
M541.898315,512.544189 
	C540.635803,518.973511 538.414185,524.460266 533.649536,528.574158 
	C525.078491,535.974548 514.054871,533.487305 510.234650,522.866394 
	C506.834625,513.413696 508.524170,504.370026 515.158264,496.725861 
	C519.288757,491.966461 524.629639,489.218536 531.174072,491.256165 
	C538.104553,493.414001 540.816956,499.016449 541.851807,505.624146 
	C542.182861,507.738007 541.922424,509.944519 541.898315,512.544189 
z"/>
<path fill="#484849" opacity="1.000000" stroke="none" 
	d="
M541.619385,552.088257 
	C536.789185,539.637085 543.426941,525.960449 555.503723,522.781616 
	C562.560791,520.924072 568.894531,524.406799 571.104248,531.359863 
	C574.297913,541.408752 567.739685,554.388550 557.771484,557.747437 
	C551.002991,560.028076 546.293823,558.464111 541.619385,552.088257 
z"/>
<path fill="#484849" opacity="1.000000" stroke="none" 
	d="
M469.199524,539.145996 
	C470.869476,546.032837 470.801208,552.271362 465.239899,556.956787 
	C461.000244,560.528809 456.084076,560.374512 451.130432,558.324219 
	C442.588257,554.789001 436.531342,543.696960 438.181854,534.589172 
	C439.966339,524.742065 449.460632,520.439514 458.448700,525.448792 
	C463.787659,528.424316 467.249542,532.947144 469.199524,539.145996 
z"/>
<path fill="#5B4B41" opacity="1.000000" stroke="none" 
	d="
M564.075989,436.118896 
	C563.616760,434.845978 563.157532,433.573059 562.918579,432.122559 
	C567.950989,433.627747 570.502563,437.274689 570.496033,442.111664 
	C570.489685,446.783203 567.815308,450.199982 563.302612,451.886139 
	C559.030701,453.482300 555.490723,452.044922 552.463745,449.011047 
	C548.942322,445.481689 548.738831,440.179321 551.680664,435.830688 
	C552.740906,434.263397 553.456543,432.463043 554.428833,430.390625 
	C554.686462,432.347992 554.844604,434.683746 554.680542,437.618164 
	C551.533813,442.233337 552.969849,445.591736 556.476501,447.976685 
	C559.565002,450.077240 562.912903,449.393646 565.456055,446.638214 
	C568.079346,443.795837 567.443298,439.785797 564.075989,436.118896 
z"/>
<path fill="#5B4B41" opacity="1.000000" stroke="none" 
	d="
M436.007599,440.517456 
	C436.027832,439.481934 436.048065,438.446381 436.115967,437.020813 
	C441.179932,439.033386 441.640778,443.399902 440.786713,448.066803 
	C440.069489,451.986206 435.368927,455.674561 431.291809,455.593842 
	C426.626587,455.501465 422.956055,453.607971 421.199219,448.927124 
	C419.362885,444.034454 420.585510,440.300323 425.709442,436.287872 
	C426.022949,437.147583 426.009399,438.076660 425.729614,439.657349 
	C424.940643,441.501648 424.162994,442.649597 423.944092,443.895660 
	C423.338989,447.340393 424.442291,450.853271 427.798920,451.446899 
	C430.562286,451.935577 434.506042,451.003845 436.509216,449.160950 
	C438.831238,447.024689 439.354218,443.224884 436.007599,440.517456 
z"/>
<path fill="#5B4B41" opacity="1.000000" stroke="none" 
	d="
M553.377319,422.362244 
	C553.839111,423.497223 554.229065,424.984406 554.378784,426.708008 
	C553.860901,425.534393 553.583191,424.124390 553.377319,422.362244 
z"/>
<path fill="#5B4B41" opacity="1.000000" stroke="none" 
	d="
M551.220215,409.350922 
	C551.687683,410.179230 552.114746,411.370667 552.285889,412.775146 
	C552.029968,412.988190 551.653198,412.801025 551.467651,412.703094 
	C551.248047,411.641479 551.213928,410.677765 551.220215,409.350922 
z"/>
<path fill="#5B4B41" opacity="1.000000" stroke="none" 
	d="
M552.853027,417.365784 
	C553.072021,417.582703 553.282654,418.126221 553.271851,418.823792 
	C552.981812,418.549377 552.913269,418.120911 552.853027,417.365784 
z"/>
<path fill="#F9F9FA" opacity="1.000000" stroke="none" 
	d="
M747.440796,837.952271 
	C753.229370,839.447937 756.351624,843.258423 757.823303,848.285706 
	C760.706543,858.134949 760.633972,868.046814 757.023926,877.722168 
	C754.416565,884.710266 748.923767,887.988342 742.796631,886.678894 
	C737.030701,885.446655 733.374084,880.224121 733.354919,873.161987 
	C733.332764,864.997253 733.331665,856.832581 733.311157,848.667847 
	C733.292053,841.072510 735.965698,838.207458 743.531677,837.805420 
	C744.691223,837.743835 745.860046,837.856384 747.440796,837.952271 
z"/>
<path fill="#FBFBFB" opacity="1.000000" stroke="none" 
	d="
M260.207642,825.268066 
	C260.314026,841.761780 252.768860,848.614502 236.205902,847.099731 
	C236.205902,834.669495 236.205902,822.191284 236.205902,809.722534 
	C250.899277,807.507690 258.243073,812.151489 260.207642,825.268066 
z"/>
<path fill="#FFFFFF" opacity="1.000000" stroke="none" 
	d="
M519.588257,366.648926 
	C519.257751,366.231476 519.419128,365.792786 519.859253,365.134583 
	C520.118713,365.485962 520.099365,366.056824 519.588257,366.648926 
z"/>
<path fill="#FBFBFB" opacity="1.000000" stroke="none" 
	d="
M670.714722,863.683838 
	C669.813049,869.197083 669.382019,874.393127 667.915466,879.278320 
	C666.155762,885.139771 661.817871,887.951111 656.443787,887.887451 
	C651.312683,887.826599 647.084656,884.976379 645.299438,879.447998 
	C641.307129,867.084595 641.492981,854.521667 645.043335,842.127563 
	C646.784790,836.048279 651.289062,833.101379 656.819763,833.149780 
	C662.240356,833.197205 666.848145,836.341797 668.199585,842.539246 
	C669.673462,849.298096 669.936035,856.321106 670.714722,863.683838 
z"/>
<path fill="#EEEEEE" opacity="1.000000" stroke="none" 
	d="
M476.190552,264.893738 
	C475.109863,269.262482 472.553864,270.966858 468.716156,269.390442 
	C465.440460,268.044891 464.264191,265.059662 466.173004,262.056458 
	C467.124756,260.558990 470.107422,258.848236 471.295441,259.341919 
	C473.300262,260.175049 474.608368,262.684814 476.190552,264.893738 
z"/>
<path fill="#F9F9FA" opacity="1.000000" stroke="none" 
	d="
M330.890442,852.896057 
	C326.112274,852.896973 321.817993,852.896973 316.181183,852.896973 
	C317.489258,847.778992 318.235809,843.096069 319.924225,838.781677 
	C321.408020,834.990234 324.742889,832.879517 329.086792,833.237122 
	C333.673309,833.614807 335.687744,836.949646 336.607025,840.789734 
	C337.486938,844.465332 337.633148,848.316589 338.201752,852.895142 
	C335.558777,852.895142 333.466583,852.895142 330.890442,852.896057 
z"/>
<path fill="#EEEEEE" opacity="1.000000" stroke="none" 
	d="
M413.581909,177.633972 
	C417.545593,178.725830 419.531403,181.479843 418.392242,184.725845 
	C417.648315,186.845627 414.775574,189.271408 412.621674,189.519150 
	C410.809845,189.727539 407.842194,187.413116 406.830963,185.465408 
	C404.820496,181.593124 407.741302,178.323303 413.581909,177.633972 
z"/>
<path fill="#EEEEEE" opacity="1.000000" stroke="none" 
	d="
M557.030762,184.731964 
	C554.738159,186.685364 552.644714,189.121979 550.236450,189.488129 
	C548.745361,189.714844 545.908752,187.115616 545.208252,185.219070 
	C543.895691,181.665237 545.612061,178.730392 549.479309,177.695007 
	C553.581482,176.596741 556.264465,179.021454 557.030762,184.731964 
z"/>
<path fill="#5B4B41" opacity="1.000000" stroke="none" 
	d="
M549.533081,401.254822 
	C550.230835,402.786011 550.875671,404.671814 551.249146,406.786713 
	C550.478577,405.213654 549.979431,403.411530 549.533081,401.254822 
z"/>
<path fill="#B18978" opacity="1.000000" stroke="none" 
	d="
M435.764954,440.862244 
	C439.354218,443.224884 438.831238,447.024689 436.509216,449.160950 
	C434.506042,451.003845 430.562286,451.935577 427.798920,451.446899 
	C424.442291,450.853271 423.338989,447.340393 423.944092,443.895660 
	C424.162994,442.649597 424.940643,441.501648 425.724670,440.007385 
	C426.303711,441.262848 426.288666,443.003357 427.021179,444.331604 
	C427.992584,446.093048 429.547913,447.532440 430.852295,449.110260 
	C432.250610,447.619598 433.828522,446.252380 434.972534,444.587006 
	C435.557098,443.736023 435.363953,442.350769 435.764954,440.862244 
z"/>
<path fill="#C59D85" opacity="1.000000" stroke="none" 
	d="
M564.026367,436.547180 
	C567.443298,439.785797 568.079346,443.795837 565.456055,446.638214 
	C562.912903,449.393646 559.565002,450.077240 556.476501,447.976685 
	C552.969849,445.591736 551.533813,442.233337 554.681885,438.009338 
	C555.266235,439.437592 555.116699,441.311737 555.893127,442.647766 
	C556.835144,444.268616 558.558838,445.435181 559.944275,446.798309 
	C561.309570,445.182648 563.057800,443.743896 563.913025,441.892548 
	C564.540771,440.533722 563.997864,438.634094 564.026367,436.547180 
z"/>
</svg>